<svg width="112" height="112" viewBox="0 0 112 112" fill="none" xmlns="http://www.w3.org/2000/svg">
<path d="M112 56C112 47.4595 110.047 39.0322 106.289 31.3627C102.532 23.6932 97.07 16.9847 90.3216 11.7504C83.5732 6.51607 75.7169 2.89462 67.3539 1.16306C58.9908 -0.568494 50.3425 -0.364275 42.0704 1.7601C33.7984 3.88447 26.1219 7.87271 19.628 13.4197C13.1342 18.9667 7.99512 25.9256 4.60393 33.7639C1.21275 41.6022 -0.340702 50.1123 0.0624172 58.6433C0.465536 67.1742 2.81454 75.4999 6.92975 82.9835L16.8704 77.5172C13.5889 71.5496 11.7157 64.9105 11.3943 58.1078C11.0728 51.3051 12.3116 44.5189 15.0158 38.2685C17.72 32.0181 21.818 26.469 26.9963 22.0457C32.1746 17.6224 38.296 14.4421 44.8923 12.7481C51.4886 11.054 58.3849 10.8912 65.0538 12.272C71.7227 13.6527 77.9874 16.5406 83.3687 20.7145C88.75 24.8885 93.1054 30.2379 96.1016 36.3538C99.0978 42.4696 100.655 49.1897 100.655 56H112Z" fill="#6FECBB"/>
<path d="M90.9575 99.7489C100.228 92.3418 106.905 82.1815 110.027 70.7336L98.8432 67.6837C96.3675 76.7618 91.0723 84.8189 83.7212 90.6927L90.9575 99.7489Z" fill="#F2A575"/>
<path d="M110.03 70.7238C111.335 65.9343 111.997 60.9924 112 56.0282L100.515 56.0224C100.513 59.9685 99.9863 63.8969 98.9487 67.7041L110.03 70.7238Z" fill="#6FECBB"/>
<path d="M6.72812 82.6136C10.6636 89.8996 16.166 96.2222 22.839 101.126C29.512 106.03 37.1895 109.392 45.3184 110.972C53.4474 112.551 61.8255 112.308 69.8492 110.26C77.873 108.213 85.3427 104.411 91.7203 99.1284L84.3007 90.1701C79.2478 94.3551 73.3297 97.3673 66.9726 98.9899C60.6154 100.612 53.9776 100.805 47.5371 99.5535C41.0966 98.302 35.0139 95.6378 29.727 91.7527C24.44 87.8676 20.0806 82.8583 16.9625 77.0856L6.72812 82.6136Z" fill="#F2A575"/>
</svg>
