<svg width="32" height="33" viewBox="0 0 32 33" fill="none" xmlns="http://www.w3.org/2000/svg">
<path d="M7.49983 7.75C7.33221 7.74991 7.16627 7.78354 7.01191 7.84888C6.85754 7.91423 6.71789 8.00995 6.60127 8.13036C6.48465 8.25077 6.39344 8.39341 6.33306 8.54979C6.27321 8.70483 6.24487 8.87024 6.2497 9.03634V9.0425V9.0524L6.25048 9.06227C6.27654 9.39069 6.42726 9.6967 6.67173 9.91754C6.91549 10.1377 7.23402 10.2566 7.56235 10.25H25.4997C26.4943 10.25 27.4481 10.6451 28.1514 11.3483C28.8546 12.0516 29.2497 13.0054 29.2497 14V24C29.2497 24.9946 28.8546 25.9484 28.1514 26.6516C27.4481 27.3549 26.4943 27.75 25.4997 27.75H7.4997C6.50514 27.75 5.55131 27.3549 4.84805 26.6516C4.14479 25.9484 3.7497 24.9946 3.7497 24V9.115H3.7498L3.7496 9.10781C3.73517 8.60636 3.82151 8.10711 4.0035 7.63962C4.18549 7.17213 4.45942 6.74591 4.80909 6.38619C5.15876 6.02647 5.57704 5.74057 6.03919 5.5454C6.50133 5.35024 6.99794 5.24979 7.4996 5.25H7.4997H23.9997C24.3312 5.25 24.6492 5.3817 24.8836 5.61612C25.118 5.85054 25.2497 6.16848 25.2497 6.5C25.2497 6.83152 25.118 7.14946 24.8836 7.38388C24.6492 7.6183 24.3312 7.75 23.9997 7.75H7.49983ZM7.49983 7.75L7.4997 8M7.49983 7.75H7.4997V8M7.4997 8H23.9997C24.3975 8 24.7791 7.84197 25.0604 7.56066C25.3417 7.27936 25.4997 6.89783 25.4997 6.5C25.4997 6.10218 25.3417 5.72064 25.0604 5.43934C24.7791 5.15804 24.3975 5 23.9997 5H7.4997L6.4997 9.0325C6.49534 8.89847 6.51799 8.76493 6.56629 8.63983C6.61459 8.51473 6.68755 8.40062 6.78085 8.30429C6.87415 8.20796 6.98586 8.13138 7.10936 8.07911C7.23285 8.02683 7.3656 7.99993 7.4997 8ZM7.5597 12.75H7.5596C7.22318 12.7501 6.88811 12.7075 6.56247 12.623L6.2497 12.5419V12.865V24C6.2497 24.3315 6.3814 24.6495 6.61582 24.8839C6.85024 25.1183 7.16818 25.25 7.4997 25.25H25.4997C25.8312 25.25 26.1492 25.1183 26.3836 24.8839C26.618 24.6495 26.7497 24.3315 26.7497 24V14C26.7497 13.6685 26.618 13.3505 26.3836 13.1161C26.1492 12.8817 25.8312 12.75 25.4997 12.75H7.5597ZM24.2497 18C24.2497 18.3461 24.1471 18.6845 23.9548 18.9722C23.7625 19.26 23.4892 19.4843 23.1694 19.6168C22.8496 19.7492 22.4978 19.7839 22.1583 19.7164C21.8188 19.6489 21.507 19.4822 21.2623 19.2374C21.0175 18.9927 20.8509 18.6809 20.7833 18.3414C20.7158 18.0019 20.7505 17.6501 20.8829 17.3303C21.0154 17.0105 21.2397 16.7372 21.5275 16.5449C21.8152 16.3526 22.1536 16.25 22.4997 16.25C22.9638 16.25 23.4089 16.4344 23.7371 16.7626C24.0653 17.0908 24.2497 17.5359 24.2497 18Z" fill="#A59FCA" stroke="#130031" stroke-width="0.5"/>
</svg>
