<svg width="23" height="28" viewBox="0 0 23 28" fill="none" xmlns="http://www.w3.org/2000/svg">
<path d="M11.5008 26.5C10.4358 26.4194 9.75398 24.9584 9.43527 24.0676C9.3326 23.7817 8.98784 23.6996 8.7672 23.9002C6.53927 25.933 2.09569 24.5304 3.4732 24.0929C4.44313 23.7849 4.99781 22.973 5.26443 22.4502C5.32265 22.3349 5.20007 22.2149 5.09128 22.2812C3.66014 23.15 0.774875 22.515 2.27803 21.3936C3.92829 20.1616 3.1882 18.519 3.1882 18.519C3.1882 18.519 0.114466 15.1736 1.25294 8.19081C2.39295 1.20799 11.5008 1.50177 11.5008 1.50177C11.5008 1.50177 20.6086 1.20799 21.7471 8.19081C22.8855 15.1736 19.8118 18.519 19.8118 18.519C19.8118 18.519 19.0717 20.1616 20.722 21.3936C22.2251 22.515 19.3399 23.1515 17.9087 22.2812C17.7999 22.2149 17.6773 22.3349 17.7356 22.4502C18.0022 22.973 18.5569 23.7849 19.5268 24.0929C20.9043 24.5304 16.4607 25.933 14.2328 23.9002C14.0122 23.698 13.6674 23.7817 13.5647 24.0676C13.246 24.9584 12.5642 26.4179 11.4992 26.5H11.5008Z" stroke="#A59FCA" stroke-width="2" stroke-miterlimit="10"/>
</svg>
