<svg width="17" height="27" viewBox="0 0 17 27" fill="none" xmlns="http://www.w3.org/2000/svg">
<path d="M12.5 1.5L1 16C1.66667 16.1667 4.3 16 7.5 16C8.5 16 5.5 24.5 5.5 26L16 12H9.5C9 12 11.5 5 12.5 1.5Z" fill="#FF2CDF"/>
<path d="M1 16L0.412377 15.534C0.254012 15.7336 0.207882 16.0001 0.289899 16.2414C0.371915 16.4827 0.570853 16.6658 0.818098 16.7276L1 16ZM12.5 1.5L13.2211 1.70604C13.3195 1.36194 13.161 0.99631 12.8426 0.832828C12.5243 0.669347 12.1348 0.753561 11.9124 1.03395L12.5 1.5ZM16 12L16.6 12.45C16.7704 12.2227 16.7979 11.9187 16.6708 11.6646C16.5438 11.4105 16.2841 11.25 16 11.25V12ZM5.5 26H4.75C4.75 26.3228 4.95657 26.6094 5.26283 26.7115C5.56909 26.8136 5.90631 26.7083 6.1 26.45L5.5 26ZM1.58762 16.466L13.0876 1.96605L11.9124 1.03395L0.412377 15.534L1.58762 16.466ZM11.7789 1.29396C11.2822 3.03225 10.4167 5.6273 9.722 7.83763C9.37826 8.93136 9.07552 9.93396 8.89005 10.6678C8.79885 11.0286 8.72757 11.3567 8.6991 11.6079C8.68615 11.7222 8.67354 11.8861 8.70103 12.0469C8.71424 12.1241 8.7485 12.2771 8.85939 12.4266C8.99604 12.6109 9.22323 12.75 9.5 12.75V11.25C9.74552 11.25 9.94732 11.3755 10.0642 11.533C10.1552 11.6558 10.1753 11.769 10.1796 11.7941C10.1893 11.8507 10.1801 11.8608 10.1896 11.7768C10.206 11.6316 10.2558 11.3854 10.3443 11.0353C10.5182 10.3473 10.8092 9.38114 11.153 8.28737C11.8333 6.1227 12.7178 3.46775 13.2211 1.70604L11.7789 1.29396ZM9.5 12.75H16V11.25H9.5V12.75ZM15.4 11.55L4.9 25.55L6.1 26.45L16.6 12.45L15.4 11.55ZM6.25 26C6.25 25.9001 6.28017 25.673 6.3605 25.2959C6.43685 24.9374 6.54656 24.4959 6.67836 23.9958C6.94475 22.9851 7.28088 21.8103 7.59902 20.6332C7.91109 19.4785 8.20126 18.3377 8.34859 17.4783C8.42057 17.0584 8.46881 16.65 8.44991 16.3247C8.44097 16.1708 8.41367 15.9511 8.30602 15.7465C8.17484 15.4973 7.90261 15.25 7.5 15.25V16.75C7.22239 16.75 7.04391 16.5691 6.97865 16.4451C6.93691 16.3658 6.9477 16.3302 6.95243 16.4117C6.96088 16.557 6.93881 16.8244 6.87016 17.2248C6.73624 18.006 6.46391 19.084 6.15098 20.2418C5.84412 21.3772 5.49275 22.6086 5.22789 23.6135C5.09406 24.1213 4.97722 24.5899 4.89341 24.9834C4.81358 25.3582 4.75 25.7249 4.75 26H6.25ZM7.5 15.25C5.89088 15.25 4.41854 15.292 3.28632 15.3126C2.71597 15.323 2.23687 15.328 1.86187 15.3205C1.46253 15.3125 1.25464 15.2906 1.1819 15.2724L0.818098 16.7276C1.07869 16.7928 1.44997 16.8125 1.83188 16.8202C2.23813 16.8283 2.74236 16.8228 3.31368 16.8124C4.4648 16.7914 5.90912 16.75 7.5 16.75V15.25Z" fill="#FF2CDF"/>
</svg>
